<?xml version="1.0" encoding="UTF-8"?><svg id="Layer_1" xmlns="http://www.w3.org/2000/svg" viewBox="0 0 320.78 153.6"><defs></defs><path class="cls-1" d="M126.66,91.62h27.43c-5.01,18.49-21.47,27.88-40.59,27.88-23.03,0-43.1-17.55-43.1-42.45s20.06-42.45,43.1-42.45c28.37,0,44.97,22.71,41.53,50.91h-57.2c2.51,7.37,8.62,11.27,15.82,11.27,6.12,0,10.35-1.41,13.01-5.17h0ZM98.14,68.29h29.46c-.78-4.86-5.64-10.66-14.1-10.66-6.9,0-12.85,3.75-15.36,10.66Z"></path><path class="cls-1" d="M246.56,2.4v114.24h-26.29v-5.18c-4.12,3.35-11.13,7-21.19,7-20.88,0-37.34-17.51-37.34-41.25s16.46-41.25,37.34-41.25c10.06,0,17.07,3.66,21.19,7V2.4h26.29ZM205.34,94.43c9,0,15.54-7,15.54-17.2s-6.55-17.2-15.54-17.2-15.54,7-15.54,17.2,6.71,17.2,15.54,17.2Z"></path><path class="cls-1" d="M269.34,94.91h7.04v-32.33h-13.56v-22.05h39.94v54.37h18.03v22.05h-62.44v-22.05h10.99Z"></path><path class="cls-1" d="M288.74,0c-9.4,0-17.17,7.43-17.17,16.9s7.77,16.75,17.17,16.75,17.17-7.28,17.17-16.75-7.77-16.9-17.17-16.9Z"></path><path class="cls-1" d="M57.49,36.5c-18.69.55-19.03,13.39-19.03,13.39v-13.39h-.34s-5.6,0-5.6,0c-3.63-.01-8.29-.06-10.42,0H0v21.98h11.49v37.33H0v21.98h48.08v-21.98h-11.12v-20.51c0-5.35,1.52-10.43,3.91-12.69,2.45-2.31,6.19-3.84,12.07-3.84h14.48v-22.28h-9.92Z"></path><rect class="cls-1" y="131.61" width="320.78" height="21.99"></rect></svg>